<svg width="119" height="20" viewBox="0 0 119 20" fill="none" xmlns="http://www.w3.org/2000/svg">
<path d="M13.2949 11.8955L18.335 13.4189C17.9964 14.8324 17.4632 16.013 16.7354 16.9609C16.0075 17.9089 15.1019 18.624 14.0186 19.1064C12.9437 19.5889 11.5726 19.8301 9.90527 19.8301C7.88249 19.8301 6.22786 19.5381 4.94141 18.9541C3.66341 18.3617 2.55892 17.3249 1.62793 15.8438C0.69694 14.3626 0.231445 12.4668 0.231445 10.1562C0.231445 7.07552 1.04818 4.70996 2.68164 3.05957C4.32357 1.40072 6.64258 0.571289 9.63867 0.571289C11.9831 0.571289 13.8239 1.04525 15.1611 1.99316C16.5068 2.94108 17.5055 4.39681 18.1572 6.36035L13.0791 7.49023C12.9014 6.92318 12.7152 6.50846 12.5205 6.24609C12.1989 5.80599 11.8053 5.46745 11.3398 5.23047C10.8743 4.99349 10.3538 4.875 9.77832 4.875C8.47493 4.875 7.47624 5.39974 6.78223 6.44922C6.25749 7.22786 5.99512 8.45085 5.99512 10.1182C5.99512 12.1833 6.30827 13.6009 6.93457 14.3711C7.56087 15.1328 8.44108 15.5137 9.5752 15.5137C10.6755 15.5137 11.5049 15.2048 12.0635 14.5869C12.6305 13.9691 13.041 13.0719 13.2949 11.8955ZM32.5918 16.4277H26.041L25.1396 19.5H19.2617L26.2568 0.888672H32.5283L39.5234 19.5H33.5059L32.5918 16.4277ZM31.3857 12.4033L29.3291 5.71289L27.2852 12.4033H31.3857ZM41.4531 19.5V0.888672H51.0381C52.8154 0.888672 54.1738 1.04102 55.1133 1.3457C56.0527 1.65039 56.8102 2.21745 57.3857 3.04688C57.9613 3.86784 58.249 4.87077 58.249 6.05566C58.249 7.08822 58.029 7.98112 57.5889 8.73438C57.1488 9.47917 56.5436 10.0843 55.7734 10.5498C55.2826 10.846 54.6097 11.0915 53.7549 11.2861C54.4404 11.5146 54.9398 11.7432 55.2529 11.9717C55.4645 12.124 55.7692 12.4499 56.167 12.9492C56.5732 13.4486 56.8441 13.8337 56.9795 14.1045L59.7598 19.5H53.2598L50.1875 13.8125C49.7982 13.0762 49.4512 12.598 49.1465 12.3779C48.7318 12.0902 48.262 11.9463 47.7373 11.9463H47.2295V19.5H41.4531ZM47.2295 8.42969H49.6543C49.9167 8.42969 50.4245 8.34505 51.1777 8.17578C51.5586 8.09961 51.8675 7.90495 52.1045 7.5918C52.3499 7.27865 52.4727 6.91895 52.4727 6.5127C52.4727 5.91178 52.2822 5.45052 51.9014 5.12891C51.5205 4.80729 50.8053 4.64648 49.7559 4.64648H47.2295V8.42969ZM61.6006 0.888672H77.0127V4.8623H67.3643V7.82031H76.3145V11.6162H67.3643V15.2852H77.292V19.5H61.6006V0.888672ZM80.4404 0.888672H85.8105L92.8184 11.1846V0.888672H98.2393V19.5H92.8184L85.8486 9.28027V19.5H80.4404V0.888672ZM100.753 0.888672H118.234V5.48438H112.369V19.5H106.618V5.48438H100.753V0.888672Z" fill="#FE8400"/>
</svg>
